<mxfile host="Electron" modified="2024-01-29T07:05:54.386Z" agent="Mozilla/5.0 (Windows NT 10.0; Win64; x64) AppleWebKit/537.36 (KHTML, like Gecko) draw.io/22.1.16 Chrome/120.0.6099.109 Electron/28.1.0 Safari/537.36" etag="xhZOS4nyhkOK2JgTNYeA" version="22.1.16" type="device">
  <diagram name="Page-1" id="Vssiu3uk5phsm43xt7Az">
    <mxGraphModel dx="880" dy="572" grid="0" gridSize="10" guides="1" tooltips="1" connect="1" arrows="1" fold="1" page="1" pageScale="1" pageWidth="900" pageHeight="1600" math="0" shadow="0">
      <root>
        <mxCell id="0" />
        <mxCell id="1" parent="0" />
        <mxCell id="9Zu2zyemMTvTRY6A2qsl-1" value="&lt;h3 style=&quot;border: 0px solid rgb(217, 217, 227); box-sizing: border-box; --tw-border-spacing-x: 0; --tw-border-spacing-y: 0; --tw-translate-x: 0; --tw-translate-y: 0; --tw-rotate: 0; --tw-skew-x: 0; --tw-skew-y: 0; --tw-scale-x: 1; --tw-scale-y: 1; --tw-pan-x: ; --tw-pan-y: ; --tw-pinch-zoom: ; --tw-scroll-snap-strictness: proximity; --tw-gradient-from-position: ; --tw-gradient-via-position: ; --tw-gradient-to-position: ; --tw-ordinal: ; --tw-slashed-zero: ; --tw-numeric-figure: ; --tw-numeric-spacing: ; --tw-numeric-fraction: ; --tw-ring-inset: ; --tw-ring-offset-width: 0px; --tw-ring-offset-color: #fff; --tw-ring-color: rgba(69,89,164,.5); --tw-ring-offset-shadow: 0 0 transparent; --tw-ring-shadow: 0 0 transparent; --tw-shadow: 0 0 transparent; --tw-shadow-colored: 0 0 transparent; --tw-blur: ; --tw-brightness: ; --tw-contrast: ; --tw-grayscale: ; --tw-hue-rotate: ; --tw-invert: ; --tw-saturate: ; --tw-sepia: ; --tw-drop-shadow: ; --tw-backdrop-blur: ; --tw-backdrop-brightness: ; --tw-backdrop-contrast: ; --tw-backdrop-grayscale: ; --tw-backdrop-hue-rotate: ; --tw-backdrop-invert: ; --tw-backdrop-opacity: ; --tw-backdrop-saturate: ; --tw-backdrop-sepia: ; font-size: 1.25em; margin: 1rem 0px 0.5rem; line-height: 1.6; color: var(--tw-prose-headings); font-family: SÃ¶hne, ui-sans-serif, system-ui, -apple-system, &amp;quot;Segoe UI&amp;quot;, Roboto, Ubuntu, Cantarell, &amp;quot;Noto Sans&amp;quot;, sans-serif, &amp;quot;Helvetica Neue&amp;quot;, Arial, &amp;quot;Apple Color Emoji&amp;quot;, &amp;quot;Segoe UI Emoji&amp;quot;, &amp;quot;Segoe UI Symbol&amp;quot;, &amp;quot;Noto Color Emoji&amp;quot;; text-align: start; background-color: rgb(52, 53, 65);&quot;&gt;Timetable&lt;/h3&gt;" style="shape=umlFrame;whiteSpace=wrap;html=1;pointerEvents=0;width=180;height=40;" vertex="1" parent="1">
          <mxGeometry x="243" y="9" width="608" height="793" as="geometry" />
        </mxCell>
        <mxCell id="9Zu2zyemMTvTRY6A2qsl-2" value="Student" style="shape=umlActor;verticalLabelPosition=bottom;verticalAlign=top;html=1;" vertex="1" parent="1">
          <mxGeometry x="900" y="297" width="30" height="60" as="geometry" />
        </mxCell>
        <mxCell id="9Zu2zyemMTvTRY6A2qsl-11" style="rounded=0;orthogonalLoop=1;jettySize=auto;html=1;exitX=0.5;exitY=0.5;exitDx=0;exitDy=0;exitPerimeter=0;endArrow=none;endFill=0;" edge="1" parent="1" source="9Zu2zyemMTvTRY6A2qsl-3" target="9Zu2zyemMTvTRY6A2qsl-6">
          <mxGeometry relative="1" as="geometry" />
        </mxCell>
        <mxCell id="9Zu2zyemMTvTRY6A2qsl-30" style="rounded=0;orthogonalLoop=1;jettySize=auto;html=1;exitX=0.5;exitY=0.5;exitDx=0;exitDy=0;exitPerimeter=0;entryX=0;entryY=0.5;entryDx=0;entryDy=0;endArrow=none;endFill=0;" edge="1" parent="1" source="9Zu2zyemMTvTRY6A2qsl-3" target="9Zu2zyemMTvTRY6A2qsl-22">
          <mxGeometry relative="1" as="geometry" />
        </mxCell>
        <mxCell id="9Zu2zyemMTvTRY6A2qsl-3" value="Timetable Officer/Administrator" style="shape=umlActor;verticalLabelPosition=bottom;verticalAlign=top;html=1;" vertex="1" parent="1">
          <mxGeometry x="76" y="231" width="30" height="60" as="geometry" />
        </mxCell>
        <mxCell id="9Zu2zyemMTvTRY6A2qsl-6" value="Generate Timetable" style="ellipse;whiteSpace=wrap;html=1;" vertex="1" parent="1">
          <mxGeometry x="270" y="110" width="100" height="70" as="geometry" />
        </mxCell>
        <mxCell id="9Zu2zyemMTvTRY6A2qsl-7" value="Interactive Timetable" style="ellipse;whiteSpace=wrap;html=1;" vertex="1" parent="1">
          <mxGeometry x="718" y="558" width="110" height="70" as="geometry" />
        </mxCell>
        <mxCell id="9Zu2zyemMTvTRY6A2qsl-12" style="rounded=0;orthogonalLoop=1;jettySize=auto;html=1;exitX=0.696;exitY=0.943;exitDx=0;exitDy=0;entryX=0.5;entryY=0;entryDx=0;entryDy=0;endArrow=classic;endFill=1;dashed=1;dashPattern=8 8;startArrow=none;startFill=0;exitPerimeter=0;" edge="1" parent="1" source="9Zu2zyemMTvTRY6A2qsl-9" target="9Zu2zyemMTvTRY6A2qsl-7">
          <mxGeometry relative="1" as="geometry" />
        </mxCell>
        <mxCell id="9Zu2zyemMTvTRY6A2qsl-18" value="&amp;lt;&amp;lt;extend&amp;gt;&amp;gt;" style="edgeLabel;html=1;align=center;verticalAlign=middle;resizable=0;points=[];" vertex="1" connectable="0" parent="9Zu2zyemMTvTRY6A2qsl-12">
          <mxGeometry x="-0.0246" y="-1" relative="1" as="geometry">
            <mxPoint as="offset" />
          </mxGeometry>
        </mxCell>
        <mxCell id="9Zu2zyemMTvTRY6A2qsl-48" style="rounded=0;orthogonalLoop=1;jettySize=auto;html=1;exitX=1;exitY=0.5;exitDx=0;exitDy=0;endArrow=none;endFill=0;" edge="1" parent="1" source="9Zu2zyemMTvTRY6A2qsl-9" target="9Zu2zyemMTvTRY6A2qsl-2">
          <mxGeometry relative="1" as="geometry" />
        </mxCell>
        <mxCell id="9Zu2zyemMTvTRY6A2qsl-9" value="Access Timetable" style="ellipse;whiteSpace=wrap;html=1;" vertex="1" parent="1">
          <mxGeometry x="736" y="297" width="92" height="70" as="geometry" />
        </mxCell>
        <mxCell id="9Zu2zyemMTvTRY6A2qsl-13" value="Filter Options" style="ellipse;whiteSpace=wrap;html=1;" vertex="1" parent="1">
          <mxGeometry x="689" y="57" width="90" height="70" as="geometry" />
        </mxCell>
        <mxCell id="9Zu2zyemMTvTRY6A2qsl-14" style="rounded=0;orthogonalLoop=1;jettySize=auto;html=1;entryX=1;entryY=1;entryDx=0;entryDy=0;endArrow=none;endFill=0;dashed=1;dashPattern=8 8;startArrow=classic;startFill=1;" edge="1" target="9Zu2zyemMTvTRY6A2qsl-13" parent="1" source="9Zu2zyemMTvTRY6A2qsl-9">
          <mxGeometry relative="1" as="geometry">
            <mxPoint x="419" y="374.75" as="sourcePoint" />
          </mxGeometry>
        </mxCell>
        <mxCell id="9Zu2zyemMTvTRY6A2qsl-17" value="&amp;lt;&amp;lt;include&amp;gt;&amp;gt;" style="edgeLabel;html=1;align=center;verticalAlign=middle;resizable=0;points=[];" vertex="1" connectable="0" parent="9Zu2zyemMTvTRY6A2qsl-14">
          <mxGeometry x="0.1826" y="2" relative="1" as="geometry">
            <mxPoint as="offset" />
          </mxGeometry>
        </mxCell>
        <mxCell id="9Zu2zyemMTvTRY6A2qsl-34" style="rounded=0;orthogonalLoop=1;jettySize=auto;html=1;entryX=0.5;entryY=1;entryDx=0;entryDy=0;endArrow=none;endFill=0;startArrow=classic;startFill=1;dashed=1;dashPattern=8 8;" edge="1" parent="1" source="9Zu2zyemMTvTRY6A2qsl-22" target="9Zu2zyemMTvTRY6A2qsl-33">
          <mxGeometry relative="1" as="geometry" />
        </mxCell>
        <mxCell id="9Zu2zyemMTvTRY6A2qsl-35" value="&amp;lt;&amp;lt;include&amp;gt;&amp;gt;" style="edgeLabel;html=1;align=center;verticalAlign=middle;resizable=0;points=[];" vertex="1" connectable="0" parent="9Zu2zyemMTvTRY6A2qsl-34">
          <mxGeometry x="-0.1216" y="3" relative="1" as="geometry">
            <mxPoint as="offset" />
          </mxGeometry>
        </mxCell>
        <mxCell id="9Zu2zyemMTvTRY6A2qsl-22" value="Modify Timetable" style="ellipse;whiteSpace=wrap;html=1;" vertex="1" parent="1">
          <mxGeometry x="268" y="558" width="85" height="70" as="geometry" />
        </mxCell>
        <mxCell id="9Zu2zyemMTvTRY6A2qsl-23" value="Validate Course Allocations" style="ellipse;whiteSpace=wrap;html=1;" vertex="1" parent="1">
          <mxGeometry x="500" y="50" width="103" height="70" as="geometry" />
        </mxCell>
        <mxCell id="9Zu2zyemMTvTRY6A2qsl-24" style="rounded=0;orthogonalLoop=1;jettySize=auto;html=1;exitX=1;exitY=1;exitDx=0;exitDy=0;entryX=0.033;entryY=0.343;entryDx=0;entryDy=0;entryPerimeter=0;dashed=1;dashPattern=8 8;" edge="1" parent="1" source="9Zu2zyemMTvTRY6A2qsl-6" target="9Zu2zyemMTvTRY6A2qsl-23">
          <mxGeometry relative="1" as="geometry" />
        </mxCell>
        <mxCell id="9Zu2zyemMTvTRY6A2qsl-26" value="&amp;lt;&amp;lt;include&amp;gt;&amp;gt;" style="edgeLabel;html=1;align=center;verticalAlign=middle;resizable=0;points=[];" vertex="1" connectable="0" parent="9Zu2zyemMTvTRY6A2qsl-24">
          <mxGeometry x="-0.2724" y="-2" relative="1" as="geometry">
            <mxPoint as="offset" />
          </mxGeometry>
        </mxCell>
        <mxCell id="9Zu2zyemMTvTRY6A2qsl-27" style="rounded=0;orthogonalLoop=1;jettySize=auto;html=1;exitX=0.5;exitY=1;exitDx=0;exitDy=0;entryX=0;entryY=0.5;entryDx=0;entryDy=0;dashed=1;dashPattern=8 8;endArrow=none;endFill=0;startArrow=classic;startFill=1;" edge="1" parent="1" target="9Zu2zyemMTvTRY6A2qsl-29" source="9Zu2zyemMTvTRY6A2qsl-6">
          <mxGeometry relative="1" as="geometry">
            <mxPoint x="280" y="220" as="sourcePoint" />
          </mxGeometry>
        </mxCell>
        <mxCell id="9Zu2zyemMTvTRY6A2qsl-28" value="&amp;lt;&amp;lt;include&amp;gt;&amp;gt;" style="edgeLabel;html=1;align=center;verticalAlign=middle;resizable=0;points=[];" vertex="1" connectable="0" parent="9Zu2zyemMTvTRY6A2qsl-27">
          <mxGeometry x="-0.2659" relative="1" as="geometry">
            <mxPoint as="offset" />
          </mxGeometry>
        </mxCell>
        <mxCell id="9Zu2zyemMTvTRY6A2qsl-29" value="Schedule Optimization" style="ellipse;whiteSpace=wrap;html=1;" vertex="1" parent="1">
          <mxGeometry x="540" y="120" width="83" height="70" as="geometry" />
        </mxCell>
        <mxCell id="9Zu2zyemMTvTRY6A2qsl-33" value="Consider Complaints" style="ellipse;whiteSpace=wrap;html=1;" vertex="1" parent="1">
          <mxGeometry x="256" y="345" width="100" height="70" as="geometry" />
        </mxCell>
        <mxCell id="9Zu2zyemMTvTRY6A2qsl-36" style="rounded=0;orthogonalLoop=1;jettySize=auto;html=1;exitX=0.95;exitY=0.729;exitDx=0;exitDy=0;entryX=0;entryY=0.5;entryDx=0;entryDy=0;endArrow=none;endFill=0;startArrow=classic;startFill=1;dashed=1;dashPattern=8 8;exitPerimeter=0;" edge="1" target="9Zu2zyemMTvTRY6A2qsl-38" parent="1" source="9Zu2zyemMTvTRY6A2qsl-22">
          <mxGeometry relative="1" as="geometry">
            <mxPoint x="430" y="345" as="sourcePoint" />
          </mxGeometry>
        </mxCell>
        <mxCell id="9Zu2zyemMTvTRY6A2qsl-37" value="&amp;lt;&amp;lt;include&amp;gt;&amp;gt;" style="edgeLabel;html=1;align=center;verticalAlign=middle;resizable=0;points=[];" vertex="1" connectable="0" parent="9Zu2zyemMTvTRY6A2qsl-36">
          <mxGeometry x="-0.1216" y="3" relative="1" as="geometry">
            <mxPoint as="offset" />
          </mxGeometry>
        </mxCell>
        <mxCell id="9Zu2zyemMTvTRY6A2qsl-38" value="Finalize Allocation" style="ellipse;whiteSpace=wrap;html=1;" vertex="1" parent="1">
          <mxGeometry x="417" y="644" width="90" height="70" as="geometry" />
        </mxCell>
        <mxCell id="9Zu2zyemMTvTRY6A2qsl-39" value="Consider Constraints" style="ellipse;whiteSpace=wrap;html=1;" vertex="1" parent="1">
          <mxGeometry x="516" y="201" width="83" height="70" as="geometry" />
        </mxCell>
        <mxCell id="9Zu2zyemMTvTRY6A2qsl-40" style="rounded=0;orthogonalLoop=1;jettySize=auto;html=1;exitX=0.5;exitY=1;exitDx=0;exitDy=0;entryX=0;entryY=0.5;entryDx=0;entryDy=0;dashed=1;dashPattern=8 8;endArrow=none;endFill=0;startArrow=classic;startFill=1;" edge="1" target="9Zu2zyemMTvTRY6A2qsl-39" parent="1">
          <mxGeometry relative="1" as="geometry">
            <mxPoint x="330" y="190" as="sourcePoint" />
          </mxGeometry>
        </mxCell>
        <mxCell id="9Zu2zyemMTvTRY6A2qsl-41" value="&amp;lt;&amp;lt;include&amp;gt;&amp;gt;" style="edgeLabel;html=1;align=center;verticalAlign=middle;resizable=0;points=[];" vertex="1" connectable="0" parent="9Zu2zyemMTvTRY6A2qsl-40">
          <mxGeometry x="-0.2659" relative="1" as="geometry">
            <mxPoint as="offset" />
          </mxGeometry>
        </mxCell>
        <mxCell id="9Zu2zyemMTvTRY6A2qsl-42" value="Conflict Resolution" style="ellipse;whiteSpace=wrap;html=1;" vertex="1" parent="1">
          <mxGeometry x="457" y="256" width="83" height="70" as="geometry" />
        </mxCell>
        <mxCell id="9Zu2zyemMTvTRY6A2qsl-43" style="rounded=0;orthogonalLoop=1;jettySize=auto;html=1;exitX=0.27;exitY=0.986;exitDx=0;exitDy=0;entryX=0;entryY=0.5;entryDx=0;entryDy=0;dashed=1;endArrow=classic;endFill=1;startArrow=none;startFill=0;exitPerimeter=0;" edge="1" target="9Zu2zyemMTvTRY6A2qsl-42" parent="1" source="9Zu2zyemMTvTRY6A2qsl-6">
          <mxGeometry relative="1" as="geometry">
            <mxPoint x="280" y="227" as="sourcePoint" />
          </mxGeometry>
        </mxCell>
        <mxCell id="9Zu2zyemMTvTRY6A2qsl-44" value="&amp;lt;&amp;lt;extend&amp;gt;&amp;gt;" style="edgeLabel;html=1;align=center;verticalAlign=middle;resizable=0;points=[];" vertex="1" connectable="0" parent="9Zu2zyemMTvTRY6A2qsl-43">
          <mxGeometry x="-0.2659" relative="1" as="geometry">
            <mxPoint as="offset" />
          </mxGeometry>
        </mxCell>
        <mxCell id="9Zu2zyemMTvTRY6A2qsl-46" style="rounded=0;orthogonalLoop=1;jettySize=auto;html=1;exitX=1;exitY=0.5;exitDx=0;exitDy=0;entryX=0;entryY=0.5;entryDx=0;entryDy=0;dashed=1;endArrow=classic;endFill=1;startArrow=none;startFill=0;" edge="1" target="9Zu2zyemMTvTRY6A2qsl-52" parent="1" source="9Zu2zyemMTvTRY6A2qsl-22">
          <mxGeometry relative="1" as="geometry">
            <mxPoint x="234" y="216" as="sourcePoint" />
            <mxPoint x="374" y="361" as="targetPoint" />
          </mxGeometry>
        </mxCell>
        <mxCell id="9Zu2zyemMTvTRY6A2qsl-47" value="&amp;lt;&amp;lt;extend&amp;gt;&amp;gt;" style="edgeLabel;html=1;align=center;verticalAlign=middle;resizable=0;points=[];" vertex="1" connectable="0" parent="9Zu2zyemMTvTRY6A2qsl-46">
          <mxGeometry x="-0.2659" relative="1" as="geometry">
            <mxPoint as="offset" />
          </mxGeometry>
        </mxCell>
        <mxCell id="9Zu2zyemMTvTRY6A2qsl-49" value="Integration with Calendar Apps" style="ellipse;whiteSpace=wrap;html=1;" vertex="1" parent="1">
          <mxGeometry x="562" y="495" width="110" height="70" as="geometry" />
        </mxCell>
        <mxCell id="9Zu2zyemMTvTRY6A2qsl-50" style="rounded=0;orthogonalLoop=1;jettySize=auto;html=1;entryX=0.5;entryY=0;entryDx=0;entryDy=0;endArrow=classic;endFill=1;dashed=1;dashPattern=8 8;startArrow=none;startFill=0;" edge="1" target="9Zu2zyemMTvTRY6A2qsl-49" parent="1" source="9Zu2zyemMTvTRY6A2qsl-9">
          <mxGeometry relative="1" as="geometry">
            <mxPoint x="665" y="448" as="sourcePoint" />
          </mxGeometry>
        </mxCell>
        <mxCell id="9Zu2zyemMTvTRY6A2qsl-51" value="&amp;lt;&amp;lt;extend&amp;gt;&amp;gt;" style="edgeLabel;html=1;align=center;verticalAlign=middle;resizable=0;points=[];" vertex="1" connectable="0" parent="9Zu2zyemMTvTRY6A2qsl-50">
          <mxGeometry x="-0.0246" y="-1" relative="1" as="geometry">
            <mxPoint as="offset" />
          </mxGeometry>
        </mxCell>
        <mxCell id="9Zu2zyemMTvTRY6A2qsl-52" value="Real-Time Updates" style="ellipse;whiteSpace=wrap;html=1;" vertex="1" parent="1">
          <mxGeometry x="519.5" y="365" width="76" height="70" as="geometry" />
        </mxCell>
        <mxCell id="9Zu2zyemMTvTRY6A2qsl-53" style="rounded=0;orthogonalLoop=1;jettySize=auto;html=1;exitX=0;exitY=0.5;exitDx=0;exitDy=0;entryX=0.5;entryY=0;entryDx=0;entryDy=0;endArrow=classic;endFill=1;dashed=1;dashPattern=8 8;startArrow=none;startFill=0;" edge="1" target="9Zu2zyemMTvTRY6A2qsl-52" parent="1" source="9Zu2zyemMTvTRY6A2qsl-9">
          <mxGeometry relative="1" as="geometry">
            <mxPoint x="668" y="225" as="sourcePoint" />
          </mxGeometry>
        </mxCell>
        <mxCell id="9Zu2zyemMTvTRY6A2qsl-54" value="&amp;lt;&amp;lt;extend&amp;gt;&amp;gt;" style="edgeLabel;html=1;align=center;verticalAlign=middle;resizable=0;points=[];" vertex="1" connectable="0" parent="9Zu2zyemMTvTRY6A2qsl-53">
          <mxGeometry x="-0.0246" y="-1" relative="1" as="geometry">
            <mxPoint as="offset" />
          </mxGeometry>
        </mxCell>
        <mxCell id="9Zu2zyemMTvTRY6A2qsl-55" value="Export and Print" style="ellipse;whiteSpace=wrap;html=1;" vertex="1" parent="1">
          <mxGeometry x="628" y="170" width="76" height="70" as="geometry" />
        </mxCell>
        <mxCell id="9Zu2zyemMTvTRY6A2qsl-56" style="rounded=0;orthogonalLoop=1;jettySize=auto;html=1;entryX=1;entryY=0.5;entryDx=0;entryDy=0;endArrow=classic;endFill=1;dashed=1;dashPattern=8 8;startArrow=none;startFill=0;" edge="1" target="9Zu2zyemMTvTRY6A2qsl-55" parent="1" source="9Zu2zyemMTvTRY6A2qsl-9">
          <mxGeometry relative="1" as="geometry">
            <mxPoint x="697" y="260" as="sourcePoint" />
          </mxGeometry>
        </mxCell>
        <mxCell id="9Zu2zyemMTvTRY6A2qsl-57" value="&amp;lt;&amp;lt;extend&amp;gt;&amp;gt;" style="edgeLabel;html=1;align=center;verticalAlign=middle;resizable=0;points=[];" vertex="1" connectable="0" parent="9Zu2zyemMTvTRY6A2qsl-56">
          <mxGeometry x="-0.0246" y="-1" relative="1" as="geometry">
            <mxPoint as="offset" />
          </mxGeometry>
        </mxCell>
      </root>
    </mxGraphModel>
  </diagram>
</mxfile>
